<svg width="18" height="18" viewBox="0 0 18 18" fill="none" xmlns="http://www.w3.org/2000/svg">
<circle cx="9" cy="9" r="9" fill="url(#paint0_linear)"/>
<path d="M9 5.5C9.385 5.5 9.7 5.815 9.7 6.2V9C9.7 9.385 9.385 9.7 9 9.7C8.615 9.7 8.3 9.385 8.3 9V6.2C8.3 5.815 8.615 5.5 9 5.5ZM8.993 2C5.129 2 2 5.136 2 9C2 12.864 5.129 16 8.993 16C12.864 16 16 12.864 16 9C16 5.136 12.864 2 8.993 2ZM9 14.6C5.906 14.6 3.4 12.094 3.4 9C3.4 5.906 5.906 3.4 9 3.4C12.094 3.4 14.6 5.906 14.6 9C14.6 12.094 12.094 14.6 9 14.6ZM9.7 12.5H8.3V11.1H9.7V12.5Z" fill="white"/>
<defs>
<linearGradient id="paint0_linear" x1="16.515" y1="1.38462" x2="-1.46053" y2="6.26628" gradientUnits="userSpaceOnUse">
<stop stop-color="#FF3E01"/>
<stop offset="1" stop-color="#F42829"/>
</linearGradient>
</defs>
</svg>
