<svg width="24" height="24" viewBox="0 0 24 24" fill="none" xmlns="http://www.w3.org/2000/svg">
<path d="M21.8182 16.8V2.4H2.18182V16.8H21.8182ZM21.8182 0C22.3968 0 22.9518 0.252856 23.361 0.702944C23.7701 1.15303 24 1.76348 24 2.4V16.8C24 17.4365 23.7701 18.047 23.361 18.4971C22.9518 18.9471 22.3968 19.2 21.8182 19.2H14.1818V21.6H16.3636V24H7.63636V21.6H9.81818V19.2H2.18182C1.60316 19.2 1.04821 18.9471 0.63904 18.4971C0.22987 18.047 0 17.4365 0 16.8V2.4C0 1.068 0.970909 0 2.18182 0H21.8182ZM4.36364 4.8H14.1818V10.8H4.36364V4.8ZM15.2727 4.8H19.6364V7.2H15.2727V4.8ZM19.6364 8.4V14.4H15.2727V8.4H19.6364ZM4.36364 12H8.72727V14.4H4.36364V12ZM9.81818 12H14.1818V14.4H9.81818V12Z" fill="#3676B4"/>
</svg>
