<svg width="18" height="22" viewBox="0 0 18 22" fill="none" xmlns="http://www.w3.org/2000/svg">
<path d="M3 0C2.20435 0 1.44129 0.289731 0.87868 0.805456C0.31607 1.32118 0 2.02065 0 2.75V19.25C0 19.9793 0.31607 20.6788 0.87868 21.1945C1.44129 21.7103 2.20435 22 3 22H17.25C17.4489 22 17.6397 21.9276 17.7803 21.7986C17.921 21.6697 18 21.4948 18 21.3125C18 21.1302 17.921 20.9553 17.7803 20.8264C17.6397 20.6974 17.4489 20.625 17.25 20.625H3C2.60218 20.625 2.22064 20.4801 1.93934 20.2223C1.65804 19.9644 1.5 19.6147 1.5 19.25H16.5C16.8978 19.25 17.2794 19.1051 17.5607 18.8473C17.842 18.5894 18 18.2397 18 17.875V2.75C18 2.02065 17.6839 1.32118 17.1213 0.805456C16.5587 0.289731 15.7956 0 15 0H3ZM11.25 7.5625C11.25 8.10951 11.0129 8.63411 10.591 9.02091C10.169 9.4077 9.59674 9.625 9 9.625C8.40326 9.625 7.83097 9.4077 7.40901 9.02091C6.98705 8.63411 6.75 8.10951 6.75 7.5625C6.75 7.01549 6.98705 6.49089 7.40901 6.10409C7.83097 5.7173 8.40326 5.5 9 5.5C9.59674 5.5 10.169 5.7173 10.591 6.10409C11.0129 6.49089 11.25 7.01549 11.25 7.5625ZM4.5 12.0312C4.5 11.7577 4.61853 11.4954 4.8295 11.302C5.04048 11.1087 5.32663 11 5.625 11H12.375C12.6734 11 12.9595 11.1087 13.1705 11.302C13.3815 11.4954 13.5 11.7577 13.5 12.0312V12.375C13.5 13.1043 13.1839 13.8038 12.6213 14.3195C12.0587 14.8353 11.2956 15.125 10.5 15.125H7.5C6.70435 15.125 5.94129 14.8353 5.37868 14.3195C4.81607 13.8038 4.5 13.1043 4.5 12.375V12.0312Z" fill="#3676B4"/>
</svg>
