<svg width="16" height="21" viewBox="0 0 16 21" fill="none" xmlns="http://www.w3.org/2000/svg">
<path fill-rule="evenodd" clip-rule="evenodd" d="M2.66667 0C1.95942 0 1.28115 0.276562 0.781048 0.768845C0.280951 1.26113 0 1.92881 0 2.625V18.375C0 19.0712 0.280951 19.7389 0.781048 20.2312C1.28115 20.7234 1.95942 21 2.66667 21H13.3333C14.0406 21 14.7189 20.7234 15.219 20.2312C15.719 19.7389 16 19.0712 16 18.375V7.10588C15.9998 6.40974 15.7188 5.74217 15.2187 5.25L10.6667 0.769125C10.1667 0.276808 9.48852 0.000148673 8.78133 0H2.66667ZM5.33333 13.125C5.33333 12.7769 5.19286 12.4431 4.94281 12.1969C4.69276 11.9508 4.35362 11.8125 4 11.8125C3.64638 11.8125 3.30724 11.9508 3.05719 12.1969C2.80714 12.4431 2.66667 12.7769 2.66667 13.125V17.0625C2.66667 17.4106 2.80714 17.7444 3.05719 17.9906C3.30724 18.2367 3.64638 18.375 4 18.375C4.35362 18.375 4.69276 18.2367 4.94281 17.9906C5.19286 17.7444 5.33333 17.4106 5.33333 17.0625V13.125ZM8 9.1875C8.35362 9.1875 8.69276 9.32578 8.94281 9.57192C9.19286 9.81806 9.33333 10.1519 9.33333 10.5V17.0625C9.33333 17.4106 9.19286 17.7444 8.94281 17.9906C8.69276 18.2367 8.35362 18.375 8 18.375C7.64638 18.375 7.30724 18.2367 7.05719 17.9906C6.80714 17.7444 6.66667 17.4106 6.66667 17.0625V10.5C6.66667 10.1519 6.80714 9.81806 7.05719 9.57192C7.30724 9.32578 7.64638 9.1875 8 9.1875ZM13.3333 7.875C13.3333 7.5269 13.1929 7.19306 12.9428 6.94692C12.6928 6.70078 12.3536 6.5625 12 6.5625C11.6464 6.5625 11.3072 6.70078 11.0572 6.94692C10.8071 7.19306 10.6667 7.5269 10.6667 7.875V17.0625C10.6667 17.4106 10.8071 17.7444 11.0572 17.9906C11.3072 18.2367 11.6464 18.375 12 18.375C12.3536 18.375 12.6928 18.2367 12.9428 17.9906C13.1929 17.7444 13.3333 17.4106 13.3333 17.0625V7.875Z" fill="#3676B4"/>
</svg>
